<?xml version="1.0" encoding="UTF-8"?><svg id="Capa_2" xmlns="http://www.w3.org/2000/svg" viewBox="0 0 409.7 238.71"><defs><style>.cls-1{fill:#5056a2;}</style></defs><g id="_"><path class="cls-1" d="M409.39,78.13c-1.08,13.66-5.69,26.06-14.4,36.78-11.15,13.68-26.08,20.83-42.9,24.65-9.77,2.19-19.68,2.53-29.61,2.43-2.8-.04-21.04-.03-38.45-.03-2.16,0-3.45-2.4-2.25-4.2l22.95-34.64c.5-.76,1.33-1.21,2.24-1.21,10.35,0,22.69-.03,24.11-.07,1.03-.03,2.05-.1,3.06-.19,5.26-.5,10.19-1.87,14.46-4.14l.04-.02c8.96-5.28,14.97-15.02,14.97-26.17s-6.22-21.22-15.43-26.44c-.01,0-.03-.01-.04-.02-3.24-1.58-6.85-2.65-10.75-3.09-1.66-.19-4.67-.34-8.67-.45-6.41-.19-15.38-.28-25.55-.34-34.01-.14-80.11,.14-89.02-.1-2.46-.05-3.2,1.17-3.18,3.44,.03,17.98,.03,35.98-.03,53.99,0,2.61,1.1,3.49,3.58,3.47,5.57-.1,11.13-.05,16.7-.05,1.82,0,13.23,.02,27.79,.03,2.16,0,3.46,2.4,2.27,4.2l-22.98,34.68c-.5,.76-1.35,1.21-2.27,1.21-10.83,0-18.88-.03-20.99-.07-3.08-.07-4.13,1.03-4.13,4.04v6.92c.04,9.47,.02,18.92,0,28.39,0,.53-.16,1.05-.45,1.5l-12.57,18.95-23.68,35.02c-2.62,3.88-8.67,2.02-8.66-2.66l.03-34.64c-.05-.67-.05-1.46-.05-2.43,0-35.23,0-70.46-.03-105.68h0c0-2.03-2.64-2.8-3.75-1.11l-4.96,7.6c-15.07,22.91-30.09,45.81-45.16,68.72-2.46,3.77-3.22,3.77-5.78-.12-17.94-27.21-33.22-50.86-51.14-78.08l-3.16-4.71c-.97-1.68-3.55-1.18-3.55,.8h0c-.05,18.01-.12,36.02,.03,54.02,.04,3.83-1.22,5.13-5.02,5.04-8.59-.22-17.22,0-25.81-.1C6.96,143.18,.04,136.23,.04,125.98-.01,89.27-.01,52.59,.04,15.91,.04,6.33,6.06,.21,15.61,.12,26.47,0,37.35,.17,48.19,.03c2.91-.05,4.56,1.1,6.04,3.48,17.03,27.46,34.13,54.88,51.21,82.3,.33,.58,.67,1.15,1.03,1.72,2.39,3.75,2.86,3.77,5.26-.1,17.22-27.65,34.44-55.31,51.51-83.03,.74-1.2,1.51-2.15,2.39-2.82C166.93,.5,168.53,0,170.7,0h.1c12.13,.07,24.27,.03,36.42,0h3.68c21.04-.03,93.48,.13,119.2,.32,3.04,.04,5.42,.07,6.95,.1,12.82,.24,25.06,2.67,36.02,8.21,6.14,3.08,11.89,7.14,17.14,12.35,15.88,15.74,20.88,35.44,19.18,57.14Z"/></g></svg>